# xmcd
#
# Track frame offsets: 
#        150
#        9960
#        22460
#        40850
#        51630
#        68110
#        84405
#        98357
#        114072
#        126452
#        141860
#        154497
#        172112
#        185982
#        198367
#        213365
#        225125
#        240667
#        257302
#        271920
#
# Disc length: 3793 seconds
#
# Revision: 3
# Processed by: cddbd v1.5.2PL0 Copyright (c) Steve Scherf et al.
# Submitted via: ExactAudioCopyFreeDBPlugin 1.0
#
DISCID=140ecf14
DTITLE=Anne Murray - Greatest Hits
DYEAR=1980
DGENRE=Country
TTITLE0=Snowbird
TTITLE1=Things
TTITLE2=You Won't See Me
TTITLE3=Daydream Believer
TTITLE4=I'm Happy Just To Dance With You
TTITLE5=You Needed Me
TTITLE6=Lucky Me
TTITLE7=I'll Always Love You
TTITLE8=Your Are My Sunshine - Open Up Your Heart
TTITLE9=Shadows In The Moonlight
TTITLE10=I Just Fall In Love Again
TTITLE11=Broken Hearted Me
TTITLE12=Danny's Song
TTITLE13=Put Your Hand In The Hand
TTITLE14=You're A Part Of Me
TTITLE15=Walk Right Back
TTITLE16=You've Got What It Takes
TTITLE17=Highly Prized Possession
TTITLE18=Could I Have This Dance
TTITLE19=Tennessee Waltz
EXTD=
EXTT0=
EXTT1=
EXTT2=
EXTT3=
EXTT4=
EXTT5=
EXTT6=
EXTT7=
EXTT8=
EXTT9=
EXTT10=
EXTT11=
EXTT12=
EXTT13=
EXTT14=
EXTT15=
EXTT16=
EXTT17=
EXTT18=
EXTT19=
PLAYORDER=
